<svg width="191" height="33" viewBox="0 0 191 33" fill="none" xmlns="http://www.w3.org/2000/svg">
<path d="M185.468 18.5536C185.446 17.3201 185 16.3327 184.131 15.5882C183.262 14.8469 182.2 14.4731 180.945 14.4731C179.758 14.4731 178.758 14.8344 177.945 15.5539C177.135 16.2735 176.637 17.2734 176.453 18.5536H185.468ZM190.439 19.9242C190.439 20.6095 190.392 21.2262 190.302 21.7744H176.422C176.537 23.145 177.017 24.2196 177.861 24.9952C178.705 25.7709 179.745 26.1602 180.979 26.1602C182.761 26.1602 184.028 25.394 184.782 23.8645H189.959C189.411 25.693 188.358 27.1944 186.807 28.3718C185.253 29.5493 183.346 30.138 181.082 30.138C179.253 30.138 177.615 29.733 176.163 28.9201C174.712 28.1102 173.581 26.9608 172.771 25.475C171.961 23.9891 171.553 22.2759 171.553 20.3322C171.553 18.3885 171.952 16.6411 172.752 15.1552C173.553 13.6694 174.671 12.5262 176.11 11.7288C177.549 10.9283 179.206 10.5296 181.082 10.5296C182.957 10.5296 184.505 10.9189 185.932 11.6946C187.358 12.4702 188.467 13.5729 189.255 15.0026C190.043 16.4324 190.439 18.0708 190.439 19.9211V19.9242ZM165.797 13.7878C166.413 12.7817 167.22 11.9936 168.214 11.4236C169.207 10.8535 170.344 10.567 171.625 10.567V15.6069H170.357C168.849 15.6069 167.712 15.962 166.946 16.6691C166.18 17.3762 165.797 18.6128 165.797 20.3696V29.8296H160.996V10.8411H165.797V13.7878ZM153.53 20.3353C153.53 19.1704 153.303 18.1705 152.845 17.3357C152.387 16.5009 151.77 15.8623 150.994 15.4169C150.219 14.9714 149.384 14.7472 148.493 14.7472C147.602 14.7472 146.78 14.9652 146.026 15.3982C145.272 15.8312 144.662 16.4666 144.191 17.3014C143.724 18.1362 143.487 19.1236 143.487 20.2668C143.487 21.41 143.721 22.4099 144.191 23.2665C144.659 24.1231 145.275 24.7803 146.042 25.2382C146.808 25.6961 147.624 25.9235 148.493 25.9235C149.362 25.9235 150.219 25.6992 150.994 25.2538C151.77 24.8084 152.387 24.1698 152.845 23.335C153.303 22.5002 153.53 21.5003 153.53 20.3353ZM138.584 20.2668C138.584 18.348 138.968 16.6442 139.734 15.1584C140.5 13.6725 141.54 12.5294 142.852 11.7319C144.166 10.9314 145.634 10.5327 147.256 10.5327C148.674 10.5327 149.913 10.8193 150.976 11.3893C152.038 11.9593 152.888 12.682 153.53 13.5479V10.8411H158.364V29.8296H153.53V27.0542C152.913 27.9451 152.063 28.6833 150.976 29.2658C149.892 29.8483 148.639 30.1411 147.222 30.1411C145.621 30.1411 144.166 29.7299 142.852 28.9076C141.537 28.0853 140.497 26.9265 139.734 25.4282C138.968 23.9331 138.584 22.2136 138.584 20.2699V20.2668ZM137.148 4.46484V29.8296H132.348V4.46484H137.148ZM131.015 5.90705V9.77889H121.041V15.9153H128.685V19.7186H121.041V29.8296H116.241V5.90393H131.015V5.90705Z" fill="url(#paint0_linear_4002_1814)"/>
<path d="M108.706 14.7816V23.9675C108.706 24.6061 108.862 25.0702 109.17 25.3568C109.479 25.6433 109.999 25.7866 110.731 25.7866H112.958V29.8298H109.943C105.9 29.8298 103.875 27.8643 103.875 23.9333V14.7816H101.613V10.8413H103.875V6.14708H108.709V10.8413H112.958V14.7816H108.709H108.706ZM100.448 10.8381V29.8267H95.6482V10.8381H100.448ZM98.081 8.57671C97.2369 8.57671 96.5329 8.30883 95.9722 7.76995C95.4115 7.23418 95.1312 6.56447 95.1312 5.76394C95.1312 4.96341 95.4115 4.29681 95.9722 3.75793C96.5329 3.22217 97.2337 2.95117 98.081 2.95117C98.9283 2.95117 99.6291 3.21905 100.19 3.75793C100.751 4.2937 101.031 4.96341 101.031 5.76394C101.031 6.56447 100.751 7.23107 100.19 7.76995C99.6291 8.30571 98.9283 8.57671 98.081 8.57671ZM89.3093 20.2639C89.3093 19.1207 89.0757 18.1333 88.6053 17.2985C88.1381 16.4637 87.5213 15.8313 86.755 15.3953C85.9888 14.9623 85.1602 14.7442 84.2693 14.7442C83.3784 14.7442 82.5841 14.9685 81.8178 15.4139C81.0516 15.8594 80.4348 16.5042 79.9676 17.3514C79.5003 18.1956 79.2636 19.1923 79.2636 20.3324C79.2636 21.4725 79.4972 22.4692 79.9676 23.3134C80.4348 24.1575 81.0516 24.8054 81.8178 25.2509C82.5841 25.6963 83.4003 25.9206 84.2693 25.9206C85.1384 25.9206 85.9888 25.6932 86.755 25.2353C87.5213 24.7774 88.1381 24.1264 88.6053 23.2822C89.0726 22.4381 89.3093 21.432 89.3093 20.267V20.2639ZM79.2667 13.6135C79.8835 12.7009 80.7338 11.9564 81.821 11.3864C82.905 10.8163 84.1447 10.5298 85.5402 10.5298C87.1631 10.5298 88.6303 10.9285 89.9448 11.729C91.2593 12.5295 92.2997 13.6665 93.0628 15.1398C93.8291 16.6132 94.2122 18.3233 94.2122 20.2639C94.2122 22.2045 93.8291 23.927 93.0628 25.4222C92.2965 26.9204 91.2562 28.0792 89.9448 28.9015C88.6303 29.7239 87.1631 30.135 85.5402 30.135C84.1229 30.135 82.8832 29.8547 81.821 29.294C80.7588 28.7333 79.9084 28.0076 79.2667 27.1167V29.8235H74.4666V4.45879H79.2667V13.6104V13.6135ZM67.4797 13.7848C68.0965 12.7787 68.9033 11.9907 69.8969 11.4206C70.8906 10.8506 72.0276 10.564 73.3078 10.564V15.604H72.04C70.5324 15.604 69.3954 15.9591 68.6291 16.6661C67.8629 17.3732 67.4797 18.6099 67.4797 20.3667V29.8267H62.6796V10.8381H67.4797V13.7848ZM48.9364 25.7835C50.3755 25.7835 51.6433 25.4564 52.7398 24.8054C53.8362 24.1544 54.6929 23.2231 55.3096 22.0114C55.9264 20.7997 56.2348 19.3948 56.2348 17.7969C56.2348 16.1989 55.9264 14.7972 55.3096 13.598C54.6929 12.3987 53.8362 11.4798 52.7398 10.8381C51.6433 10.1996 50.3755 9.87875 48.9364 9.87875C47.4973 9.87875 46.2233 10.1996 45.1144 10.8381C44.0055 11.4767 43.1426 12.3987 42.5259 13.598C41.9091 14.7972 41.6007 16.1958 41.6007 17.7969C41.6007 19.3979 41.9091 20.8028 42.5259 22.0114C43.1426 23.2231 44.0055 24.1544 45.1144 24.8054C46.2233 25.4564 47.4973 25.7835 48.9364 25.7835ZM48.9364 30.0665C46.6968 30.0665 44.6409 29.5401 42.7657 28.4904C40.8905 27.4406 39.4078 25.9829 38.3082 24.1201C37.2117 22.2574 36.6635 20.1486 36.6635 17.7969C36.6635 15.4451 37.2117 13.3706 38.3082 11.5078C39.4047 9.64513 40.8905 8.18735 42.7657 7.13762C44.6409 6.08789 46.6968 5.56147 48.9364 5.56147C51.1761 5.56147 53.26 6.08789 55.1227 7.13762C56.9855 8.18735 58.4588 9.64513 59.5428 11.5078C60.6268 13.3706 61.1719 15.4669 61.1719 17.7969C61.1719 20.1268 60.63 22.2574 59.5428 24.1201C58.4588 25.9829 56.9792 27.4406 55.104 28.4904C53.2288 29.5401 51.173 30.0665 48.9333 30.0665H48.9364Z" fill="white"/>
<path d="M5.38086 9.93069C5.38086 9.93069 5.40816 8.87804 9.70375 9.16471V9.97164C9.70375 9.97164 5.39451 9.4893 5.38086 10.8999V9.93069Z" fill="url(#paint1_linear_4002_1814)"/>
<path d="M5.38086 22.7002C5.38086 22.7002 5.40816 21.6476 9.70375 21.9342V22.7412C9.70375 22.7412 5.39451 22.2588 5.38086 23.6694V22.7002Z" fill="url(#paint2_linear_4002_1814)"/>
<path d="M3.19336 16.3155C3.19336 16.3155 3.22066 15.2628 7.51625 15.5495V16.3564C7.51625 16.3564 3.20701 15.8741 3.19336 17.2847V16.3155Z" fill="url(#paint3_linear_4002_1814)"/>
<path d="M27.6456 23.3514C27.3954 24.2114 26.6005 24.8424 25.6601 24.8424C24.5195 24.8424 23.5912 23.9141 23.5912 22.7735C23.5912 21.6328 24.5195 20.7046 25.6601 20.7046C26.6005 20.7046 27.3954 21.3356 27.6456 22.1956H31.107C31.4725 21.0731 31.6879 19.8855 31.7349 18.6539H31.3497C31.0994 19.5139 30.3046 20.1449 29.3642 20.1449C28.2235 20.1449 27.2952 19.2166 27.2952 18.076C27.2952 16.9354 28.2235 16.0071 29.3642 16.0071C30.3046 16.0071 31.0994 16.6381 31.3497 17.4996H31.7319C31.6712 16.2771 31.4376 15.1 31.063 13.9882H27.6471C27.3969 14.8483 26.6021 15.4792 25.6616 15.4792C24.521 15.4792 23.5927 14.551 23.5927 13.4103C23.5927 12.2697 24.521 11.3415 25.6616 11.3415C26.6021 11.3415 27.3969 11.9724 27.6471 12.8325H30.6095C28.6346 8.42922 24.2905 5.31981 19.1986 5.13477L19.2714 5.16814L15.3383 6.96553L13.5424 10.9016L11.8102 7.10507C8.13044 9.40907 5.68384 13.4968 5.68384 18.1579C5.68384 25.355 11.519 31.1901 18.7162 31.1901C24.069 31.1901 28.6664 27.9624 30.6716 23.3468H27.6471L27.6456 23.3514Z" fill="#3CAB9C"/>
<path d="M1.44336 13.121C1.44336 13.121 1.51162 12.3672 5.76625 12.3672V13.121C3.68671 13.121 1.44184 13.4198 1.44336 14.0903V13.121Z" fill="#70BAAB"/>
<path d="M6.06745 13.1206H5.76257L5.68066 12.3652H7.40375V13.1206H6.06745Z" fill="#70BAAB"/>
<path d="M1.44336 19.5078C1.44336 19.5078 1.51162 18.7539 5.76625 18.7539V19.5078C3.68671 19.5078 1.44184 19.8066 1.44336 20.477V19.5078Z" fill="#70BAAB"/>
<path d="M7.40375 19.5078H5.76257L5.68066 18.7539H7.40375V19.5078Z" fill="#952A6E"/>
<path d="M11.8085 7.1138C8.12878 9.41628 5.68066 13.504 5.68066 18.1651C5.68066 23.8925 9.37711 28.7538 14.513 30.5011C18.6675 27.9635 21.4402 23.3889 21.4402 18.1651C21.4402 13.5177 19.2454 9.38443 15.8372 6.74219L15.3351 6.97122L13.5392 10.9073L11.8085 7.1138Z" fill="#46B5A6"/>
<path d="M24.7432 13.4166C24.7432 13.9217 25.1542 14.3312 25.6578 14.3312C26.1614 14.3312 26.5724 13.9201 26.5724 13.4166C26.5724 12.913 26.1614 12.502 25.6578 12.502C25.1542 12.502 24.7432 12.913 24.7432 13.4166Z" fill="#94DDD1"/>
<path d="M24.7432 22.776C24.7432 23.281 25.1542 23.6906 25.6578 23.6906C26.1614 23.6906 26.5724 23.2795 26.5724 22.776C26.5724 22.2724 26.1614 21.8613 25.6578 21.8613C25.1542 21.8613 24.7432 22.2724 24.7432 22.776Z" fill="#94DDD1"/>
<path d="M28.4495 18.0806C28.4495 18.5857 28.8606 18.9953 29.3642 18.9953C29.8677 18.9953 30.2788 18.5842 30.2788 18.0806C30.2788 17.5771 29.8677 17.166 29.3642 17.166C28.8606 17.166 28.4495 17.5771 28.4495 18.0806Z" fill="#3CAB9C"/>
<path fill-rule="evenodd" clip-rule="evenodd" d="M20.9266 12.6105C20.4215 12.6105 20.012 12.1994 20.012 11.6958C20.012 11.1923 20.4231 10.7812 20.9266 10.7812C21.4302 10.7812 21.8413 11.1923 21.8413 11.6958C21.8413 12.1994 21.4302 12.6105 20.9266 12.6105ZM20.9266 9.62695C19.9862 9.62695 19.1914 10.2579 18.9411 11.118H8.23554C6.35622 11.0785 5.38091 10.4688 5.38091 9.92879V11.118C5.38091 11.118 5.33389 12.1433 8.03532 12.2722H18.9411C19.1914 13.1322 19.9862 13.7647 20.9266 13.7647C22.0673 13.7647 22.9955 12.8365 22.9955 11.6958C22.9955 10.5552 22.0673 9.62695 20.9266 9.62695Z" fill="url(#paint4_linear_4002_1814)"/>
<path fill-rule="evenodd" clip-rule="evenodd" d="M20.9267 25.3796C20.4216 25.3796 20.0121 24.9685 20.0121 24.4649C20.0121 23.9614 20.4231 23.5503 20.9267 23.5503C21.4303 23.5503 21.8413 23.9614 21.8413 24.4649C21.8413 24.9685 21.4303 25.3796 20.9267 25.3796ZM20.9267 22.396C19.9863 22.396 19.1915 23.027 18.9412 23.8871H8.2356C6.35628 23.8476 5.38097 23.2379 5.38097 22.6979V23.8871C5.38097 23.8871 5.33395 24.8987 8.03538 25.0277V25.0413H18.9412C19.1915 25.9013 19.9863 26.5323 20.9267 26.5323C22.0673 26.5323 22.9956 25.6041 22.9956 24.4634C22.9956 23.3228 22.0673 22.3945 20.9267 22.3945V22.396Z" fill="url(#paint5_linear_4002_1814)"/>
<path fill-rule="evenodd" clip-rule="evenodd" d="M23.1151 18.9952C22.61 18.9952 22.2005 18.5842 22.2005 18.0806C22.2005 17.577 22.6115 17.166 23.1151 17.166C23.6187 17.166 24.0297 17.577 24.0297 18.0806C24.0297 18.5842 23.6187 18.9952 23.1151 18.9952ZM23.1151 16.0117C22.1747 16.0117 21.3799 16.6427 21.1296 17.5042H6.43482C4.30068 17.5467 3.19341 16.8899 3.19341 16.3151V17.5042C3.19341 17.5042 3.14336 18.5963 6.17393 18.6555V18.6585H21.1296C21.3799 19.5185 22.1747 20.1495 23.1151 20.1495C24.2557 20.1495 25.184 19.2212 25.184 18.0806C25.184 16.94 24.2557 16.0117 23.1151 16.0117Z" fill="url(#paint6_linear_4002_1814)"/>
<path d="M16.9861 15.8054C16.481 15.8054 16.0714 15.3943 16.0714 14.8907C16.0714 14.3872 16.4825 13.9761 16.9861 13.9761C17.4896 13.9761 17.9007 14.3872 17.9007 14.8907C17.9007 15.3943 17.4896 15.8054 16.9861 15.8054ZM16.9861 12.8218C16.0456 12.8218 15.2508 13.4528 15.0006 14.3128H4.74395C2.6098 14.3553 1.44035 13.6955 1.44035 13.1206V14.3098C1.44035 14.3098 1.35693 15.3973 4.39963 15.461V15.4671H14.9991C15.2493 16.3271 16.0441 16.9581 16.9845 16.9581C18.1252 16.9581 19.0535 16.0298 19.0535 14.8892C19.0535 13.7486 18.1252 12.8203 16.9845 12.8203L16.9861 12.8218Z" fill="#94DDD1"/>
<path d="M16.9861 22.1886C16.481 22.1886 16.0715 21.7775 16.0715 21.274C16.0715 20.7704 16.4825 20.3593 16.9861 20.3593C17.4897 20.3593 17.9008 20.7704 17.9008 21.274C17.9008 21.7775 17.4897 22.1886 16.9861 22.1886ZM16.9861 19.2051C16.0457 19.2051 15.2509 19.8361 15.0006 20.6976H4.27076C2.43847 20.6415 1.44041 20.0393 1.44041 19.5099V20.6991C1.44041 20.6991 1.35698 21.7897 4.41638 21.8504V21.8534H4.63025C4.64845 21.8534 4.66362 21.8534 4.68182 21.8534H14.9991C15.2494 22.7134 16.0442 23.3459 16.9846 23.3459C18.1252 23.3459 19.0535 22.4176 19.0535 21.277C19.0535 20.1364 18.1252 19.2081 16.9846 19.2081L16.9861 19.2051Z" fill="#94DDD1"/>
<path fill-rule="evenodd" clip-rule="evenodd" d="M12.2319 3.86521L9.36816 5.17419L12.2319 6.48318L13.5409 9.34839L14.8484 6.48318L17.7121 5.17419L14.8484 3.86521L13.5409 1L12.2319 3.86521Z" fill="#94DDD1"/>
<path fill-rule="evenodd" clip-rule="evenodd" d="M30.5472 28.3284L28.5996 29.2188L30.5472 30.1091L31.4375 32.0582L32.3264 30.1091L34.274 29.2188L32.3264 28.3284L31.4375 26.3809L30.5472 28.3284Z" fill="#94DDD1"/>
<path d="M24.7451 3.3735C24.7451 3.75877 24.4326 4.07123 24.0473 4.07123C23.6621 4.07123 23.3496 3.75877 23.3496 3.3735C23.3496 2.98824 23.6621 2.67578 24.0473 2.67578C24.4326 2.67578 24.7451 2.98824 24.7451 3.3735Z" fill="#94DDD1"/>
<path d="M12.4018 31.7361C12.4018 32.4339 11.836 32.9996 11.1383 32.9996C10.4406 32.9996 9.87482 32.4339 9.87482 31.7361C9.87482 31.0384 10.4406 30.4727 11.1383 30.4727C11.836 30.4727 12.4018 31.0384 12.4018 31.7361Z" fill="#94DDD1"/>
<path d="M34.82 22.7777C34.82 23.3647 34.3437 23.8425 33.7567 23.8425C33.1697 23.8425 32.6934 23.3662 32.6934 22.7777C32.6934 22.1892 33.1697 21.7129 33.7567 21.7129C34.3437 21.7129 34.82 22.1892 34.82 22.7777Z" fill="#94DDD1"/>
<path d="M1.37388 16.8313C1.37388 17.1817 1.09024 17.4653 0.739858 17.4653C0.389477 17.4653 0.105835 17.1817 0.105835 16.8313C0.105835 16.4809 0.389477 16.1973 0.739858 16.1973C1.09024 16.1973 1.37388 16.4809 1.37388 16.8313Z" fill="#94DDD1"/>
<defs>
<linearGradient id="paint0_linear_4002_1814" x1="190.171" y1="30.1411" x2="116.241" y2="30.4774" gradientUnits="userSpaceOnUse">
<stop stop-color="#50AA9E"/>
<stop offset="0.64" stop-color="white"/>
</linearGradient>
<linearGradient id="paint1_linear_4002_1814" x1="-9.47926" y1="10.008" x2="-9.32758" y2="10.008" gradientUnits="userSpaceOnUse">
<stop stop-color="#061713"/>
<stop offset="0.18" stop-color="#0F2722"/>
<stop offset="0.54" stop-color="#28524C"/>
<stop offset="1" stop-color="#4E9289"/>
</linearGradient>
<linearGradient id="paint2_linear_4002_1814" x1="-9.47926" y1="22.7776" x2="7.24046" y2="22.7776" gradientUnits="userSpaceOnUse">
<stop stop-color="#061713"/>
<stop offset="0.18" stop-color="#0F2722"/>
<stop offset="0.54" stop-color="#28524C"/>
<stop offset="1" stop-color="#4E9289"/>
</linearGradient>
<linearGradient id="paint3_linear_4002_1814" x1="3.19336" y1="16.3913" x2="7.51625" y2="16.3913" gradientUnits="userSpaceOnUse">
<stop stop-color="#061713"/>
<stop offset="0.18" stop-color="#0F2722"/>
<stop offset="0.54" stop-color="#28524C"/>
<stop offset="1" stop-color="#4E9289"/>
</linearGradient>
<linearGradient id="paint4_linear_4002_1814" x1="23.9102" y1="11.6958" x2="7.9883" y2="11.6958" gradientUnits="userSpaceOnUse">
<stop stop-color="#061713"/>
<stop offset="0.18" stop-color="#0F2722"/>
<stop offset="0.54" stop-color="#28524C"/>
<stop offset="1" stop-color="#4E9289"/>
</linearGradient>
<linearGradient id="paint5_linear_4002_1814" x1="24.2955" y1="24.4649" x2="6.19095" y2="24.4649" gradientUnits="userSpaceOnUse">
<stop stop-color="#061713"/>
<stop offset="0.18" stop-color="#0F2722"/>
<stop offset="0.54" stop-color="#28524C"/>
<stop offset="1" stop-color="#4E9289"/>
</linearGradient>
<linearGradient id="paint6_linear_4002_1814" x1="27.4183" y1="18.0806" x2="3.92299" y2="18.0806" gradientUnits="userSpaceOnUse">
<stop stop-color="#061713"/>
<stop offset="0.18" stop-color="#0F2722"/>
<stop offset="0.54" stop-color="#28524C"/>
<stop offset="1" stop-color="#4E9289"/>
</linearGradient>
</defs>
</svg>
